<?xml version="1.0" encoding="utf-8"?>
<svg width="256px" height="256px" viewBox="0 0 256 256" version="1.1" xmlns:xlink="http://www.w3.org/1999/xlink" xmlns="http://www.w3.org/2000/svg">
  <defs>
    <path d="M0 0L256 0L256 256L0 256L0 0Z" id="path_1" />
    <clipPath id="mask_1">
      <use xlink:href="#path_1" />
    </clipPath>
  </defs>
  <g id="mail_svg">
    <path d="M0 0L256 0L256 256L0 256L0 0Z" id="Background" fill="none" fill-rule="evenodd" stroke="none" />
    <g clip-path="url(#mask_1)">
      <g id="Group" transform="translate(1.9639893 33.5038)">
        <g id="Group">
          <path d="M211.589 188.99L40.4856 188.99C18.1604 188.99 0 170.829 0 148.504L0 40.4856C0 18.1632 18.1632 0 40.4856 0L211.589 0C233.912 0 252.072 18.1632 252.072 40.4856L252.072 148.504C252.072 170.829 233.912 188.99 211.589 188.99L211.589 188.99ZM40.4856 11.839C24.6891 11.839 11.839 24.6891 11.839 40.4856L11.839 148.504C11.839 164.301 24.6891 177.153 40.4856 177.153L211.589 177.153C227.386 177.153 240.236 164.301 240.236 148.504L240.236 40.4856C240.236 24.6891 227.386 11.839 211.589 11.839L40.4856 11.839L40.4856 11.839Z" id="Shape" fill="#FFFFFF" fill-rule="evenodd" stroke="none" />
          <path d="M1.83831 10.4067C32.0982 39.8935 62.358 69.3776 92.6179 98.8644C98.2587 104.36 106.916 95.7219 101.267 90.2155C71.0069 60.7315 40.747 31.2447 10.4872 1.76064C4.84636 -3.73733 -3.81091 4.90314 1.83831 10.4067L1.83831 10.4067L1.83831 10.4067Z" transform="translate(29.093729 30.641815)" id="Shape" fill="#FFFFFF" fill-rule="evenodd" stroke="none" />
          <path d="M10.4864 98.864C40.7462 69.38 71.0061 39.8932 101.266 10.4091C106.912 4.90558 98.2606 -3.73769 92.617 1.76028C62.3572 31.2443 32.0973 60.7311 1.8375 90.2151C-3.80891 95.7187 4.84276 104.362 10.4864 98.864L10.4864 98.864L10.4864 98.864Z" transform="translate(119.87407 30.642174)" id="Shape" fill="#FFFFFF" fill-rule="evenodd" stroke="none" />
          <path d="M70.9344 59.0025C50.7994 39.9066 30.6617 20.8136 10.5267 1.71771C4.81586 -3.69623 -3.84702 4.93582 1.87782 10.3666C22.0128 29.4624 42.1505 48.5555 62.2855 67.6514C67.9963 73.0653 76.6592 64.4304 70.9344 59.0025L70.9344 59.0025L70.9344 59.0025Z" transform="translate(149.87231 91.37529)" id="Shape" fill="#FFFFFF" fill-rule="evenodd" stroke="none" />
          <path d="M10.5259 67.6522C30.6608 48.5563 50.7986 29.4633 70.9335 10.3674C76.6556 4.93945 67.9983 -3.6982 62.2847 1.71854C42.1497 20.8144 22.012 39.9075 1.87701 59.0033C-3.84502 64.4312 4.81226 73.0717 10.5259 67.6522L10.5259 67.6522L10.5259 67.6522Z" transform="translate(29.934467 91.37166)" id="Shape" fill="#FFFFFF" fill-rule="evenodd" stroke="none" />
        </g>
      </g>
    </g>
  </g>
</svg>